<svg width="233" height="221" viewBox="0 0 233 221" fill="none" xmlns="http://www.w3.org/2000/svg">
<rect width="233" height="221" rx="110.5" fill="black"/>
<path d="M79.296 157.568L69.952 129.92H44.608L34.752 157.568H44.352V160H24.768V157.568H30.784L63.424 69.632H73.92L106.176 157.568H112.064V160H70.208V157.568H79.296ZM57.792 93.568L45.76 127.104H68.928L57.792 93.568ZM115.563 70.4H155.499V72.832H148.075V112.512H173.547V72.832H165.995V70.4H206.059V72.832H198.507V157.568H206.059V160H165.995V157.568H173.547V115.84H148.075V157.568H155.499V160H115.563V157.568H123.115V72.832H115.563V70.4Z" fill="white"/>
</svg>
