<svg width="1440" height="138" viewBox="0 0 1440 138" fill="none" xmlns="http://www.w3.org/2000/svg">
<path d="M0 64.4549C0 64.4549 212.011 19.8002 347.329 34.5647C462.507 47.1319 516.784 105.576 632.303 114.77C803.882 128.426 890.449 23.898 1062.6 22.1104C1214.59 20.5323 1303.57 35.5633 1446 86.8726" stroke="#A36043" stroke-width="44" stroke-linecap="round"/>
<path d="M1310.59 54.3422L1303.96 52.4735L1304.44 50.759L1306.64 51.3787L1310.41 38.0124L1308.21 37.3927L1308.69 35.6782L1315.32 37.5469L1314.84 39.2614L1312.64 38.6417L1308.87 52.008L1311.07 52.6277L1310.59 54.3422ZM1320.8 57.0961C1320.37 57.089 1319.91 57.0526 1319.41 56.9868C1318.93 56.9231 1318.5 56.8394 1318.13 56.7356C1316.85 56.3733 1315.97 55.7519 1315.49 54.8715C1315.02 53.9912 1315 52.7877 1315.43 51.2612L1317.31 44.5612L1315.88 44.1575L1316.38 42.3754L1317.82 42.779L1318.84 39.1582L1320.96 39.7557L1319.94 43.3765L1324.31 44.6096L1323.81 46.3917L1319.44 45.1586L1317.82 50.8999C1317.63 51.5617 1317.5 52.0848 1317.42 52.4692C1317.35 52.8462 1317.36 53.2217 1317.45 53.5959C1317.53 53.9433 1317.69 54.2287 1317.94 54.4521C1318.19 54.6701 1318.62 54.8628 1319.21 55.0302C1319.56 55.1276 1319.93 55.1805 1320.33 55.1886C1320.74 55.1893 1321.04 55.1791 1321.22 55.158L1321.33 55.1898L1320.8 57.0961ZM1335.6 54.8253L1326.31 52.2097C1326.09 52.9843 1326.02 53.6939 1326.09 54.3386C1326.16 54.9757 1326.35 55.5358 1326.65 56.0187C1326.94 56.4898 1327.33 56.8908 1327.81 57.2217C1328.3 57.5547 1328.87 57.8123 1329.52 57.9945C1330.37 58.2361 1331.28 58.3095 1332.24 58.2147C1333.21 58.1146 1333.93 57.951 1334.39 57.724L1334.5 57.7558L1333.85 60.0681C1333.05 60.1676 1332.25 60.214 1331.45 60.2072C1330.65 60.2005 1329.84 60.0817 1329.02 59.8507C1326.93 59.2617 1325.45 58.238 1324.6 56.7795C1323.75 55.3135 1323.61 53.539 1324.2 51.4561C1324.78 49.3957 1325.8 47.918 1327.26 47.023C1328.73 46.1301 1330.38 45.9422 1332.22 46.4592C1333.92 46.938 1335.09 47.803 1335.72 49.054C1336.37 50.3073 1336.43 51.8475 1335.92 53.6748L1335.6 54.8253ZM1333.99 52.6195C1334.29 51.5044 1334.26 50.564 1333.87 49.7981C1333.49 49.0343 1332.74 48.4935 1331.61 48.1757C1330.48 47.8558 1329.48 47.9351 1328.61 48.4137C1327.75 48.8944 1327.14 49.6183 1326.77 50.5855L1333.99 52.6195ZM1347.86 53.7389L1347.74 53.7072C1347.45 53.543 1347.16 53.4035 1346.86 53.2886C1346.58 53.1684 1346.24 53.0511 1345.83 52.9367C1345.18 52.7523 1344.5 52.721 1343.81 52.8427C1343.12 52.9568 1342.43 53.1638 1341.74 53.4635L1339.22 62.4082L1337.1 61.8108L1340.65 49.2115L1342.77 49.809L1342.24 51.6701C1343.28 51.2306 1344.15 50.9618 1344.87 50.8637C1345.6 50.7601 1346.29 50.8027 1346.96 50.9912C1347.33 51.095 1347.6 51.1815 1347.75 51.2507C1347.92 51.3124 1348.15 51.4161 1348.47 51.562L1347.86 53.7389ZM1356.75 67.347L1354.64 66.7527L1355.01 65.4105C1354.79 65.4853 1354.48 65.5938 1354.1 65.7358C1353.72 65.8724 1353.36 65.966 1353.02 66.0166C1352.62 66.09 1352.17 66.1184 1351.68 66.102C1351.19 66.093 1350.63 66.0017 1350.01 65.828C1348.88 65.508 1348.02 64.8609 1347.45 63.8864C1346.87 62.912 1346.74 61.842 1347.07 60.6764C1347.34 59.7214 1347.76 59.0079 1348.33 58.5357C1348.91 58.0582 1349.63 57.7572 1350.49 57.6329C1351.35 57.5106 1352.33 57.5408 1353.44 57.7234C1354.55 57.9061 1355.73 58.1411 1356.98 58.4284L1357.07 58.1013C1357.21 57.62 1357.24 57.1971 1357.15 56.8326C1357.08 56.4701 1356.9 56.1542 1356.64 55.8847C1356.39 55.627 1356.06 55.4088 1355.66 55.23C1355.25 55.0511 1354.82 54.8971 1354.36 54.7679C1353.8 54.6111 1353.16 54.5115 1352.44 54.4691C1351.71 54.4191 1350.95 54.4305 1350.14 54.5032L1350.02 54.4715L1350.63 52.3171C1351.08 52.3208 1351.71 52.3652 1352.53 52.4502C1353.35 52.5352 1354.14 52.6847 1354.9 52.8986C1355.79 53.1487 1356.54 53.441 1357.15 53.7758C1357.77 54.1051 1358.27 54.5143 1358.65 55.0033C1359.03 55.4827 1359.26 56.0318 1359.36 56.6506C1359.45 57.2695 1359.38 57.985 1359.15 58.7971L1356.75 67.347ZM1355.51 63.6508L1356.5 60.1429C1355.84 59.9983 1355.06 59.8396 1354.16 59.6669C1353.27 59.4964 1352.55 59.4105 1351.99 59.4093C1351.34 59.4106 1350.77 59.5425 1350.29 59.8051C1349.81 60.0601 1349.48 60.5072 1349.3 61.1463C1349.1 61.8682 1349.16 62.4749 1349.49 62.9662C1349.83 63.45 1350.44 63.818 1351.34 64.0702C1352.08 64.2799 1352.8 64.3288 1353.5 64.2168C1354.2 64.0972 1354.87 63.9086 1355.51 63.6508ZM1367.4 70.228C1366.97 70.221 1366.51 70.1846 1366.02 70.1188C1365.54 70.0551 1365.11 69.9714 1364.74 69.8675C1363.45 69.5052 1362.57 68.8839 1362.1 68.0035C1361.63 67.1231 1361.6 65.9197 1362.03 64.3932L1363.92 57.6931L1362.49 57.2895L1362.99 55.5073L1364.42 55.9109L1365.44 52.2902L1367.56 52.8877L1366.54 56.5084L1370.92 57.7415L1370.42 59.5237L1366.04 58.2906L1364.42 64.0319C1364.24 64.6936 1364.11 65.2167 1364.03 65.6012C1363.96 65.9781 1363.97 66.3537 1364.05 66.7279C1364.14 67.0753 1364.3 67.3607 1364.54 67.5841C1364.8 67.8021 1365.22 67.9948 1365.82 68.1621C1366.16 68.2596 1366.54 68.3124 1366.94 68.3206C1367.35 68.3213 1367.64 68.3111 1367.83 68.29L1367.94 68.3218L1367.4 70.228ZM1382.2 67.9573L1372.92 65.3417C1372.7 66.1162 1372.63 66.8258 1372.7 67.4705C1372.77 68.1077 1372.96 68.6677 1373.26 69.1506C1373.55 69.6217 1373.93 70.0228 1374.42 70.3537C1374.91 70.6867 1375.48 70.9443 1376.12 71.1265C1376.98 71.368 1377.89 71.4415 1378.85 71.3467C1379.82 71.2466 1380.53 71.083 1381 70.8559L1381.11 70.8877L1380.46 73.2C1379.66 73.2995 1378.86 73.3459 1378.06 73.3392C1377.25 73.3325 1376.44 73.2137 1375.62 72.9827C1373.53 72.3937 1372.06 71.37 1371.21 69.9115C1370.35 68.4455 1370.22 66.671 1370.81 64.588C1371.39 62.5276 1372.41 61.0499 1373.87 60.155C1375.34 59.2621 1376.99 59.0742 1378.83 59.5911C1380.52 60.07 1381.69 60.9349 1382.33 62.186C1382.98 63.4392 1383.04 64.9795 1382.53 66.8068L1382.2 67.9573ZM1380.6 65.7514C1380.9 64.6364 1380.86 63.6959 1380.48 62.93C1380.1 62.1663 1379.35 61.6255 1378.22 61.3077C1377.08 60.9878 1376.08 61.0671 1375.22 61.5456C1374.36 62.0263 1373.75 62.7503 1373.38 63.7174L1380.6 65.7514Z" fill="white"/>
<path d="M1015.02 28.0195C1015.02 28.6992 1014.86 29.3711 1014.54 30.0352C1014.23 30.6992 1013.79 31.2617 1013.22 31.7227C1012.59 32.2227 1011.86 32.6133 1011.03 32.8945C1010.2 33.1758 1009.2 33.3164 1008.03 33.3164C1006.77 33.3164 1005.64 33.1992 1004.63 32.9648C1003.63 32.7305 1002.61 32.3828 1001.57 31.9219V29.0156H1001.73C1002.62 29.75 1003.64 30.3164 1004.79 30.7148C1005.95 31.1133 1007.04 31.3125 1008.05 31.3125C1009.49 31.3125 1010.61 31.043 1011.4 30.5039C1012.21 29.9648 1012.61 29.2461 1012.61 28.3477C1012.61 27.5742 1012.42 27.0039 1012.04 26.6367C1011.66 26.2695 1011.09 25.9844 1010.31 25.7812C1009.73 25.625 1009.09 25.4961 1008.4 25.3945C1007.72 25.293 1007 25.1641 1006.23 25.0078C1004.69 24.6797 1003.54 24.1211 1002.79 23.332C1002.05 22.5352 1001.68 21.5 1001.68 20.2266C1001.68 18.7656 1002.29 17.5703 1003.53 16.6406C1004.76 15.7031 1006.33 15.2344 1008.23 15.2344C1009.45 15.2344 1010.58 15.3516 1011.6 15.5859C1012.62 15.8203 1013.53 16.1094 1014.32 16.4531V19.1953H1014.16C1013.49 18.6328 1012.62 18.168 1011.53 17.8008C1010.45 17.4258 1009.35 17.2383 1008.21 17.2383C1006.97 17.2383 1005.97 17.4961 1005.21 18.0117C1004.46 18.5273 1004.09 19.1914 1004.09 20.0039C1004.09 20.7305 1004.28 21.3008 1004.65 21.7148C1005.03 22.1289 1005.69 22.4453 1006.63 22.6641C1007.13 22.7734 1007.84 22.9062 1008.77 23.0625C1009.69 23.2188 1010.47 23.3789 1011.11 23.543C1012.41 23.8867 1013.38 24.4062 1014.04 25.1016C1014.7 25.7969 1015.02 26.7695 1015.02 28.0195ZM1025.37 32.8828C1024.96 32.9922 1024.5 33.082 1024.01 33.1523C1023.53 33.2227 1023.09 33.2578 1022.71 33.2578C1021.38 33.2578 1020.36 32.8984 1019.66 32.1797C1018.97 31.4609 1018.62 30.3086 1018.62 28.7227V21.7617H1017.13V19.9102H1018.62V16.1484H1020.82V19.9102H1025.37V21.7617H1020.82V27.7266C1020.82 28.4141 1020.84 28.9531 1020.87 29.3438C1020.9 29.7266 1021.01 30.0859 1021.2 30.4219C1021.37 30.7344 1021.61 30.9648 1021.9 31.1133C1022.21 31.2539 1022.67 31.3242 1023.29 31.3242C1023.64 31.3242 1024.02 31.2734 1024.41 31.1719C1024.8 31.0625 1025.08 30.9727 1025.25 30.9023H1025.37V32.8828ZM1038.21 33H1036.02V31.6055C1035.83 31.7383 1035.56 31.9258 1035.23 32.168C1034.9 32.4023 1034.58 32.5898 1034.27 32.7305C1033.9 32.9102 1033.48 33.0586 1033 33.1758C1032.52 33.3008 1031.96 33.3633 1031.32 33.3633C1030.14 33.3633 1029.14 32.9727 1028.32 32.1914C1027.5 31.4102 1027.09 30.4141 1027.09 29.2031C1027.09 28.2109 1027.3 27.4102 1027.73 26.8008C1028.16 26.1836 1028.77 25.6992 1029.55 25.3477C1030.35 24.9961 1031.31 24.7578 1032.43 24.6328C1033.54 24.5078 1034.74 24.4141 1036.02 24.3516V24.0117C1036.02 23.5117 1035.93 23.0977 1035.75 22.7695C1035.58 22.4414 1035.33 22.1836 1035 21.9961C1034.69 21.8164 1034.32 21.6953 1033.88 21.6328C1033.44 21.5703 1032.98 21.5391 1032.51 21.5391C1031.93 21.5391 1031.29 21.6172 1030.57 21.7734C1029.86 21.9219 1029.13 22.1406 1028.37 22.4297H1028.25V20.1914C1028.68 20.0742 1029.3 19.9453 1030.12 19.8047C1030.93 19.6641 1031.73 19.5938 1032.52 19.5938C1033.44 19.5938 1034.24 19.6719 1034.92 19.8281C1035.61 19.9766 1036.2 20.2344 1036.7 20.6016C1037.2 20.9609 1037.57 21.4258 1037.83 21.9961C1038.09 22.5664 1038.21 23.2734 1038.21 24.1172V33ZM1036.02 29.7773V26.1328C1035.35 26.1719 1034.56 26.2305 1033.64 26.3086C1032.74 26.3867 1032.02 26.5 1031.49 26.6484C1030.86 26.8281 1030.34 27.1094 1029.95 27.4922C1029.56 27.8672 1029.37 28.3867 1029.37 29.0508C1029.37 29.8008 1029.59 30.3672 1030.05 30.75C1030.5 31.125 1031.19 31.3125 1032.12 31.3125C1032.89 31.3125 1033.6 31.1641 1034.24 30.8672C1034.88 30.5625 1035.48 30.1992 1036.02 29.7773ZM1054.34 33H1051.43L1046.18 27.2695L1044.75 28.6289V33H1042.55V14.7656H1044.75V26.4609L1051.12 19.9102H1053.89L1047.81 25.957L1054.34 33ZM1067.62 26.6836H1057.97C1057.97 27.4883 1058.09 28.1914 1058.34 28.793C1058.58 29.3867 1058.91 29.875 1059.33 30.2578C1059.74 30.6328 1060.22 30.9141 1060.77 31.1016C1061.34 31.2891 1061.95 31.3828 1062.62 31.3828C1063.52 31.3828 1064.41 31.207 1065.31 30.8555C1066.21 30.4961 1066.86 30.1445 1067.24 29.8008H1067.36V32.2031C1066.62 32.5156 1065.86 32.7773 1065.09 32.9883C1064.31 33.1992 1063.5 33.3047 1062.65 33.3047C1060.48 33.3047 1058.78 32.7188 1057.56 31.5469C1056.34 30.3672 1055.73 28.6953 1055.73 26.5312C1055.73 24.3906 1056.32 22.6914 1057.48 21.4336C1058.65 20.1758 1060.19 19.5469 1062.1 19.5469C1063.86 19.5469 1065.22 20.0625 1066.18 21.0938C1067.14 22.125 1067.62 23.5898 1067.62 25.4883V26.6836ZM1065.47 24.9961C1065.46 23.8398 1065.17 22.9453 1064.59 22.3125C1064.02 21.6797 1063.15 21.3633 1061.98 21.3633C1060.8 21.3633 1059.86 21.7109 1059.16 22.4062C1058.46 23.1016 1058.07 23.9648 1057.97 24.9961H1065.47ZM1081.9 33H1079.7V25.5469C1079.7 24.9453 1079.66 24.3828 1079.59 23.8594C1079.52 23.3281 1079.39 22.9141 1079.21 22.6172C1079.01 22.2891 1078.73 22.0469 1078.36 21.8906C1078 21.7266 1077.52 21.6445 1076.93 21.6445C1076.33 21.6445 1075.7 21.793 1075.05 22.0898C1074.39 22.3867 1073.76 22.7656 1073.16 23.2266V33H1070.96V14.7656H1073.16V21.3633C1073.85 20.793 1074.56 20.3477 1075.29 20.0273C1076.03 19.707 1076.78 19.5469 1077.55 19.5469C1078.97 19.5469 1080.05 19.9727 1080.79 20.8242C1081.53 21.6758 1081.9 22.9023 1081.9 24.5039V33ZM1097.3 26.4609C1097.3 28.5938 1096.75 30.2773 1095.66 31.5117C1094.57 32.7461 1093.1 33.3633 1091.27 33.3633C1089.41 33.3633 1087.94 32.7461 1086.85 31.5117C1085.76 30.2773 1085.22 28.5938 1085.22 26.4609C1085.22 24.3281 1085.76 22.6445 1086.85 21.4102C1087.94 20.168 1089.41 19.5469 1091.27 19.5469C1093.1 19.5469 1094.57 20.168 1095.66 21.4102C1096.75 22.6445 1097.3 24.3281 1097.3 26.4609ZM1095.03 26.4609C1095.03 24.7656 1094.7 23.5078 1094.03 22.6875C1093.37 21.8594 1092.45 21.4453 1091.27 21.4453C1090.07 21.4453 1089.14 21.8594 1088.48 22.6875C1087.82 23.5078 1087.49 24.7656 1087.49 26.4609C1087.49 28.1016 1087.82 29.3477 1088.49 30.1992C1089.15 31.043 1090.08 31.4648 1091.27 31.4648C1092.44 31.4648 1093.36 31.0469 1094.02 30.2109C1094.69 29.3672 1095.03 28.1172 1095.03 26.4609ZM1102.95 33H1100.75V14.7656H1102.95V33ZM1117.93 33H1115.72V31.6289C1115.09 32.1758 1114.43 32.6016 1113.74 32.9062C1113.05 33.2109 1112.31 33.3633 1111.5 33.3633C1109.94 33.3633 1108.7 32.7617 1107.78 31.5586C1106.86 30.3555 1106.41 28.6875 1106.41 26.5547C1106.41 25.4453 1106.56 24.457 1106.88 23.5898C1107.2 22.7227 1107.62 21.9844 1108.16 21.375C1108.7 20.7812 1109.31 20.3281 1110.02 20.0156C1110.73 19.7031 1111.46 19.5469 1112.22 19.5469C1112.91 19.5469 1113.52 19.6211 1114.05 19.7695C1114.58 19.9102 1115.14 20.1328 1115.72 20.4375V14.7656H1117.93V33ZM1115.72 29.7773V22.2656C1115.13 22 1114.6 21.8164 1114.13 21.7148C1113.66 21.6133 1113.15 21.5625 1112.59 21.5625C1111.36 21.5625 1110.4 21.9922 1109.71 22.8516C1109.02 23.7109 1108.68 24.9297 1108.68 26.5078C1108.68 28.0625 1108.95 29.2461 1109.48 30.0586C1110.01 30.8633 1110.86 31.2656 1112.03 31.2656C1112.66 31.2656 1113.29 31.1289 1113.93 30.8555C1114.57 30.5742 1115.17 30.2148 1115.72 29.7773ZM1133.22 26.6836H1123.57C1123.57 27.4883 1123.7 28.1914 1123.94 28.793C1124.18 29.3867 1124.51 29.875 1124.93 30.2578C1125.34 30.6328 1125.82 30.9141 1126.38 31.1016C1126.94 31.2891 1127.55 31.3828 1128.23 31.3828C1129.12 31.3828 1130.01 31.207 1130.91 30.8555C1131.82 30.4961 1132.46 30.1445 1132.84 29.8008H1132.96V32.2031C1132.22 32.5156 1131.46 32.7773 1130.69 32.9883C1129.91 33.1992 1129.1 33.3047 1128.25 33.3047C1126.08 33.3047 1124.38 32.7188 1123.16 31.5469C1121.95 30.3672 1121.34 28.6953 1121.34 26.5312C1121.34 24.3906 1121.92 22.6914 1123.08 21.4336C1124.25 20.1758 1125.79 19.5469 1127.7 19.5469C1129.46 19.5469 1130.82 20.0625 1131.78 21.0938C1132.74 22.125 1133.22 23.5898 1133.22 25.4883V26.6836ZM1131.07 24.9961C1131.07 23.8398 1130.77 22.9453 1130.2 22.3125C1129.62 21.6797 1128.75 21.3633 1127.58 21.3633C1126.4 21.3633 1125.46 21.7109 1124.76 22.4062C1124.06 23.1016 1123.67 23.9648 1123.57 24.9961H1131.07ZM1144.73 22.3125H1144.61C1144.28 22.2344 1143.96 22.1797 1143.65 22.1484C1143.34 22.1094 1142.98 22.0898 1142.56 22.0898C1141.88 22.0898 1141.22 22.2422 1140.59 22.5469C1139.96 22.8438 1139.35 23.2305 1138.76 23.707V33H1136.56V19.9102H1138.76V21.8438C1139.64 21.1406 1140.41 20.6445 1141.07 20.3555C1141.74 20.0586 1142.43 19.9102 1143.12 19.9102C1143.5 19.9102 1143.78 19.9219 1143.95 19.9453C1144.12 19.9609 1144.38 19.9961 1144.73 20.0508V22.3125ZM1170.95 33H1168.63V17.9648L1163.78 28.1953H1162.4L1157.58 17.9648V33H1155.41V15.5508H1158.58L1163.23 25.2656L1167.73 15.5508H1170.95V33ZM1186.42 26.6836H1176.78C1176.78 27.4883 1176.9 28.1914 1177.14 28.793C1177.38 29.3867 1177.71 29.875 1178.14 30.2578C1178.54 30.6328 1179.02 30.9141 1179.58 31.1016C1180.14 31.2891 1180.76 31.3828 1181.43 31.3828C1182.32 31.3828 1183.21 31.207 1184.11 30.8555C1185.02 30.4961 1185.66 30.1445 1186.05 29.8008H1186.16V32.2031C1185.42 32.5156 1184.66 32.7773 1183.89 32.9883C1183.12 33.1992 1182.3 33.3047 1181.45 33.3047C1179.28 33.3047 1177.59 32.7188 1176.37 31.5469C1175.15 30.3672 1174.54 28.6953 1174.54 26.5312C1174.54 24.3906 1175.12 22.6914 1176.29 21.4336C1177.46 20.1758 1179 19.5469 1180.9 19.5469C1182.67 19.5469 1184.03 20.0625 1184.98 21.0938C1185.94 22.125 1186.42 23.5898 1186.42 25.4883V26.6836ZM1184.28 24.9961C1184.27 23.8398 1183.98 22.9453 1183.4 22.3125C1182.83 21.6797 1181.96 21.3633 1180.79 21.3633C1179.61 21.3633 1178.66 21.7109 1177.96 22.4062C1177.27 23.1016 1176.87 23.9648 1176.78 24.9961H1184.28ZM1200.72 26.6836H1191.07C1191.07 27.4883 1191.2 28.1914 1191.44 28.793C1191.68 29.3867 1192.01 29.875 1192.43 30.2578C1192.84 30.6328 1193.32 30.9141 1193.88 31.1016C1194.44 31.2891 1195.05 31.3828 1195.73 31.3828C1196.62 31.3828 1197.51 31.207 1198.41 30.8555C1199.32 30.4961 1199.96 30.1445 1200.34 29.8008H1200.46V32.2031C1199.72 32.5156 1198.96 32.7773 1198.19 32.9883C1197.41 33.1992 1196.6 33.3047 1195.75 33.3047C1193.58 33.3047 1191.88 32.7188 1190.66 31.5469C1189.45 30.3672 1188.84 28.6953 1188.84 26.5312C1188.84 24.3906 1189.42 22.6914 1190.58 21.4336C1191.75 20.1758 1193.29 19.5469 1195.2 19.5469C1196.96 19.5469 1198.32 20.0625 1199.28 21.0938C1200.24 22.125 1200.72 23.5898 1200.72 25.4883V26.6836ZM1198.57 24.9961C1198.57 23.8398 1198.27 22.9453 1197.7 22.3125C1197.12 21.6797 1196.25 21.3633 1195.08 21.3633C1193.9 21.3633 1192.96 21.7109 1192.26 22.4062C1191.56 23.1016 1191.17 23.9648 1191.07 24.9961H1198.57ZM1210.86 32.8828C1210.44 32.9922 1209.99 33.082 1209.5 33.1523C1209.01 33.2227 1208.58 33.2578 1208.2 33.2578C1206.86 33.2578 1205.84 32.8984 1205.15 32.1797C1204.45 31.4609 1204.11 30.3086 1204.11 28.7227V21.7617H1202.62V19.9102H1204.11V16.1484H1206.31V19.9102H1210.86V21.7617H1206.31V27.7266C1206.31 28.4141 1206.32 28.9531 1206.36 29.3438C1206.39 29.7266 1206.5 30.0859 1206.68 30.4219C1206.86 30.7344 1207.09 30.9648 1207.39 31.1133C1207.69 31.2539 1208.15 31.3242 1208.77 31.3242C1209.13 31.3242 1209.5 31.2734 1209.89 31.1719C1210.29 31.0625 1210.57 30.9727 1210.74 30.9023H1210.86V32.8828ZM1215.89 17.7188H1213.41V15.4336H1215.89V17.7188ZM1215.75 33H1213.55V19.9102H1215.75V33ZM1231.06 33H1228.86V25.5469C1228.86 24.9453 1228.82 24.3828 1228.75 23.8594C1228.68 23.3281 1228.55 22.9141 1228.36 22.6172C1228.17 22.2891 1227.89 22.0469 1227.52 21.8906C1227.15 21.7266 1226.68 21.6445 1226.09 21.6445C1225.49 21.6445 1224.86 21.793 1224.2 22.0898C1223.55 22.3867 1222.92 22.7656 1222.32 23.2266V33H1220.11V19.9102H1222.32V21.3633C1223 20.793 1223.71 20.3477 1224.45 20.0273C1225.18 19.707 1225.94 19.5469 1226.71 19.5469C1228.12 19.5469 1229.2 19.9727 1229.95 20.8242C1230.69 21.6758 1231.06 22.9023 1231.06 24.5039V33ZM1245.92 31.5117C1245.92 33.7305 1245.41 35.3594 1244.41 36.3984C1243.4 37.4375 1241.85 37.957 1239.75 37.957C1239.06 37.957 1238.38 37.9062 1237.71 37.8047C1237.06 37.7109 1236.41 37.5742 1235.77 37.3945V35.1445H1235.89C1236.25 35.2852 1236.82 35.457 1237.6 35.6602C1238.38 35.8711 1239.16 35.9766 1239.94 35.9766C1240.69 35.9766 1241.31 35.8867 1241.8 35.707C1242.3 35.5273 1242.68 35.2773 1242.95 34.957C1243.23 34.6523 1243.42 34.2852 1243.54 33.8555C1243.66 33.4258 1243.71 32.9453 1243.71 32.4141V31.2188C1243.05 31.75 1242.41 32.1484 1241.8 32.4141C1241.2 32.6719 1240.43 32.8008 1239.5 32.8008C1237.93 32.8008 1236.69 32.2383 1235.77 31.1133C1234.86 29.9805 1234.4 28.3867 1234.4 26.332C1234.4 25.207 1234.55 24.2383 1234.87 23.4258C1235.19 22.6055 1235.62 21.8984 1236.17 21.3047C1236.68 20.75 1237.29 20.3203 1238.02 20.0156C1238.75 19.7031 1239.47 19.5469 1240.19 19.5469C1240.95 19.5469 1241.58 19.625 1242.09 19.7812C1242.6 19.9297 1243.14 20.1602 1243.71 20.4727L1243.86 19.9102H1245.92V31.5117ZM1243.71 29.4023V22.2656C1243.13 22 1242.58 21.8125 1242.07 21.7031C1241.57 21.5859 1241.07 21.5273 1240.57 21.5273C1239.36 21.5273 1238.41 21.9336 1237.71 22.7461C1237.02 23.5586 1236.67 24.7383 1236.67 26.2852C1236.67 27.7539 1236.93 28.8672 1237.45 29.625C1237.96 30.3828 1238.82 30.7617 1240.01 30.7617C1240.65 30.7617 1241.29 30.6406 1241.93 30.3984C1242.58 30.1484 1243.18 29.8164 1243.71 29.4023Z" fill="white"/>
<path d="M844.49 67.3994L846.556 85.3096L844.119 86.2525L835.472 74.0673L837.354 88.8699L834.971 89.7916L824.369 75.1839L826.588 74.3255L835.243 86.5325L833.375 71.6997L835.572 70.8498L844.256 83.1964L842.37 68.2197L844.49 67.3994ZM850.518 67.3917L848.201 68.2882L847.377 66.1569L849.694 65.2605L850.518 67.3917ZM855.901 81.6943L853.846 82.4893L849.123 70.2812L851.178 69.4863L855.901 81.6943ZM863.728 67.2067L863.619 67.2489C863.285 67.2945 862.966 67.359 862.663 67.4427C862.365 67.5162 862.019 67.629 861.626 67.7813C860.992 68.0265 860.435 68.4054 859.955 68.9179C859.472 69.4231 859.043 70.0036 858.668 70.6595L862.021 79.3264L859.967 80.1214L855.244 67.9133L857.298 67.1184L857.996 68.9217C858.558 67.9502 859.097 67.2099 859.612 66.7007C860.132 66.1814 860.716 65.7963 861.364 65.5454C861.721 65.4073 861.984 65.3182 862.153 65.278C862.319 65.2306 862.572 65.1703 862.912 65.0973L863.728 67.2067ZM877.459 66.5814L868.464 70.0613C868.754 70.8118 869.121 71.4238 869.564 71.8975C870.004 72.3639 870.49 72.6994 871.021 72.9043C871.536 73.1074 872.085 73.1963 872.67 73.1711C873.262 73.143 873.872 73.0077 874.498 72.7653C875.329 72.4439 876.1 71.9572 876.811 71.3052C877.526 70.643 878.001 70.0826 878.234 69.6239L878.343 69.5816L879.21 71.8221C878.63 72.3813 878.018 72.8989 877.373 73.3747C876.728 73.8505 876.008 74.242 875.214 74.5492C873.188 75.3329 871.396 75.3981 869.836 74.745C868.274 74.0845 867.102 72.7451 866.321 70.7268C865.549 68.7304 865.479 66.9357 866.111 65.3426C866.75 63.7466 867.958 62.6048 869.736 61.917C871.383 61.2799 872.836 61.2703 874.098 61.8882C875.366 62.5032 876.342 63.696 877.027 65.4666L877.459 66.5814ZM874.85 65.7813C874.425 64.7058 873.829 63.9772 873.062 63.5956C872.302 63.2112 871.375 63.2305 870.282 63.6533C869.182 64.0789 868.429 64.7429 868.024 65.645C867.627 66.5444 867.57 67.4919 867.855 68.4875L874.85 65.7813ZM883.611 53.709L883.502 53.7513C883.251 53.7731 882.93 53.8217 882.541 53.8971C882.148 53.9652 881.814 54.0528 881.537 54.1599C880.655 54.501 880.09 54.9458 879.841 55.4943C879.597 56.0327 879.673 56.8119 880.067 57.832L880.228 58.2473L883.933 56.8139L884.601 58.5407L880.962 59.9487L885.017 70.43L882.962 71.2249L878.907 60.7437L877.519 61.2807L876.851 59.5538L878.239 59.0168L878.082 58.6125C877.521 57.1625 877.452 55.9118 877.875 54.8604C878.295 53.8017 879.186 53.0088 880.548 52.4817C881.007 52.3041 881.427 52.1667 881.809 52.0694C882.197 51.9694 882.556 51.8893 882.884 51.8292L883.611 53.709ZM894.483 55.308L894.374 55.3503C894.04 55.3959 893.721 55.4604 893.419 55.544C893.12 55.6175 892.774 55.7304 892.381 55.8826C891.747 56.1279 891.19 56.5067 890.71 57.0192C890.227 57.5245 889.798 58.105 889.423 58.7609L892.777 67.4278L890.722 68.2228L885.999 56.0147L888.053 55.2198L888.751 57.0231C889.313 56.0516 889.852 55.3113 890.367 54.8021C890.887 54.2828 891.471 53.8977 892.119 53.6468C892.476 53.5087 892.739 53.4196 892.908 53.3794C893.074 53.3319 893.327 53.2717 893.667 53.1987L894.483 55.308ZM909.761 60.8569L907.717 61.6476L907.214 60.3471C907.079 60.5414 906.899 60.8121 906.673 61.1592C906.452 61.4962 906.221 61.7866 905.98 62.0305C905.703 62.3306 905.363 62.6213 904.961 62.9025C904.561 63.191 904.063 63.4509 903.465 63.682C902.365 64.1077 901.292 64.1042 900.245 63.6716C899.198 63.2389 898.456 62.4579 898.019 61.3286C897.661 60.4032 897.569 59.5803 897.742 58.8597C897.92 58.1291 898.314 57.4574 898.923 56.8449C899.539 56.2294 900.346 55.6619 901.343 55.1422C902.339 54.6225 903.424 54.1024 904.596 53.5818L904.474 53.2649C904.293 52.7985 904.06 52.4448 903.774 52.2036C903.495 51.9596 903.169 51.8094 902.796 51.7529C902.439 51.6981 902.046 51.7204 901.615 51.82C901.185 51.9196 900.747 52.0553 900.303 52.2273C899.764 52.4359 899.191 52.7413 898.584 53.1435C897.975 53.5385 897.369 54.0075 896.766 54.5505L896.657 54.5928L895.849 52.5053C896.208 52.241 896.74 51.8966 897.447 51.4723C898.154 51.048 898.876 50.6935 899.612 50.4088C900.472 50.0762 901.247 49.8601 901.937 49.7606C902.632 49.6509 903.278 49.6771 903.877 49.8392C904.466 49.9968 904.983 50.295 905.43 50.7338C905.876 51.1727 906.251 51.7856 906.556 52.5725L909.761 60.8569ZM906.554 58.6421L905.239 55.2431C904.627 55.5219 903.908 55.8627 903.084 56.2654C902.267 56.6652 901.637 57.0302 901.195 57.3603C900.67 57.7562 900.294 58.2032 900.068 58.7012C899.839 59.1918 899.844 59.7468 900.084 60.3662C900.355 61.0657 900.77 61.5122 901.331 61.7057C901.889 61.8919 902.601 61.8173 903.469 61.4819C904.19 61.2028 904.796 60.8092 905.286 60.3012C905.774 59.7859 906.196 59.2329 906.554 58.6421ZM931.532 52.434L929.477 53.229L926.788 46.2779C926.585 45.7533 926.364 45.2568 926.124 44.7883C925.891 44.3171 925.642 43.9653 925.376 43.7331C925.087 43.4846 924.755 43.3408 924.38 43.3017C924.005 43.2627 923.522 43.3573 922.932 43.5856C922.356 43.8083 921.837 44.1767 921.374 44.6909C920.908 45.1977 920.474 45.7847 920.07 46.4519C920.157 46.611 920.251 46.8007 920.353 47.0209C920.452 47.2339 920.544 47.4496 920.629 47.6682L923.652 55.4827L921.597 56.2776L918.908 49.3266C918.699 48.7874 918.476 48.2872 918.239 47.8261C918.007 47.3548 917.758 47.003 917.492 46.7708C917.203 46.5223 916.872 46.3822 916.5 46.3504C916.125 46.3113 915.642 46.4059 915.052 46.6343C914.491 46.8513 913.98 47.2082 913.518 47.705C913.064 48.1989 912.64 48.7693 912.245 49.4163L915.772 58.5313L913.717 59.3263L908.994 47.1182L911.049 46.3233L911.573 47.6785C912.008 46.8986 912.485 46.2366 913.004 45.6926C913.529 45.1458 914.153 44.7329 914.874 44.4538C915.705 44.1325 916.475 44.0353 917.186 44.1623C917.905 44.2866 918.526 44.6034 919.049 45.1128C919.609 44.0919 920.173 43.296 920.739 42.725C921.303 42.1467 921.974 41.7068 922.754 41.4052C924.095 40.8865 925.24 40.9126 926.19 41.4834C927.144 42.0441 927.903 43.053 928.466 44.5103L931.532 52.434ZM943.428 41.0589L934.433 44.5389C934.724 45.2894 935.09 45.9014 935.533 46.3751C935.973 46.8415 936.459 47.177 936.991 47.3818C937.505 47.585 938.055 47.6739 938.639 47.6487C939.232 47.6206 939.841 47.4853 940.468 47.2429C941.298 46.9215 942.069 46.4348 942.78 45.7828C943.496 45.1206 943.97 44.5602 944.203 44.1015L944.312 44.0592L945.179 46.2997C944.6 46.8589 943.987 47.3764 943.342 47.8522C942.697 48.328 941.977 48.7196 941.183 49.0268C939.158 49.8105 937.365 49.8757 935.806 49.2226C934.243 48.5621 933.072 47.2227 932.291 45.2044C931.518 43.208 931.448 41.4132 932.08 39.8201C932.719 38.2242 933.928 37.0824 935.705 36.3946C937.352 35.7575 938.806 35.7479 940.067 36.3658C941.335 36.9808 942.312 38.1736 942.997 39.9442L943.428 41.0589ZM940.819 40.2589C940.395 39.1834 939.799 38.4548 939.031 38.0732C938.271 37.6888 937.344 37.708 936.251 38.1309C935.151 38.5565 934.399 39.2205 933.994 40.1226C933.596 41.022 933.54 41.9695 933.824 42.9651L940.819 40.2589Z" fill="white"/>
<path d="M630.246 124.617C629.82 124.813 629.432 124.996 629.084 125.166C628.743 125.337 628.294 125.517 627.735 125.708C627.261 125.865 626.744 126 626.183 126.112C625.631 126.232 625.019 126.298 624.347 126.311C623.081 126.334 621.926 126.18 620.881 125.848C619.843 125.509 618.934 124.967 618.154 124.224C617.39 123.496 616.787 122.566 616.343 121.433C615.9 120.293 615.664 118.965 615.635 117.45C615.608 116.012 615.787 114.724 616.172 113.583C616.557 112.443 617.125 111.475 617.876 110.68C618.603 109.908 619.487 109.313 620.526 108.895C621.573 108.477 622.737 108.256 624.018 108.232C624.955 108.214 625.891 108.31 626.825 108.519C627.766 108.727 628.813 109.106 629.964 109.655L630.016 112.408L629.84 112.412C628.864 111.625 627.9 111.057 626.948 110.708C625.996 110.359 624.981 110.194 623.903 110.215C623.02 110.231 622.226 110.391 621.521 110.693C620.823 110.988 620.203 111.441 619.66 112.053C619.132 112.649 618.724 113.399 618.436 114.303C618.156 115.199 618.027 116.233 618.049 117.404C618.072 118.631 618.256 119.682 618.601 120.558C618.953 121.435 619.396 122.145 619.93 122.69C620.488 123.258 621.133 123.675 621.864 123.943C622.604 124.202 623.38 124.325 624.192 124.309C625.309 124.288 626.352 124.077 627.321 123.676C628.29 123.275 629.193 122.684 630.03 121.902L630.195 121.899L630.246 124.617ZM643.545 125.632L641.354 125.674L641.327 124.279C641.134 124.416 640.872 124.608 640.541 124.857C640.217 125.097 639.901 125.291 639.591 125.437C639.227 125.624 638.808 125.78 638.334 125.906C637.86 126.04 637.302 126.113 636.662 126.125C635.483 126.148 634.475 125.776 633.64 125.01C632.806 124.245 632.377 123.256 632.354 122.046C632.335 121.054 632.531 120.249 632.941 119.632C633.359 119.007 633.959 118.511 634.742 118.145C635.532 117.778 636.484 117.522 637.599 117.376C638.714 117.23 639.911 117.113 641.191 117.027L641.184 116.687C641.175 116.187 641.077 115.775 640.891 115.45C640.713 115.125 640.459 114.872 640.127 114.691C639.811 114.517 639.434 114.403 638.995 114.349C638.557 114.295 638.099 114.272 637.623 114.281C637.045 114.292 636.402 114.382 635.694 114.552C634.986 114.714 634.256 114.946 633.503 115.249L633.386 115.252L633.344 113.014C633.772 112.889 634.39 112.748 635.2 112.592C636.009 112.436 636.809 112.351 637.598 112.336C638.519 112.319 639.322 112.382 640.004 112.525C640.694 112.66 641.293 112.907 641.8 113.265C642.298 113.615 642.682 114.072 642.951 114.638C643.219 115.203 643.361 115.908 643.377 116.751L643.545 125.632ZM641.293 122.452L641.224 118.808C640.553 118.86 639.761 118.933 638.849 119.028C637.944 119.124 637.228 119.25 636.7 119.409C636.07 119.6 635.564 119.891 635.181 120.281C634.797 120.664 634.612 121.187 634.624 121.851C634.638 122.6 634.875 123.163 635.336 123.537C635.796 123.903 636.491 124.078 637.42 124.06C638.193 124.046 638.898 123.884 639.532 123.575C640.167 123.258 640.754 122.884 641.293 122.452ZM655.751 114.713L655.634 114.715C655.304 114.643 654.983 114.595 654.67 114.569C654.365 114.536 654.001 114.523 653.579 114.531C652.9 114.544 652.247 114.709 651.62 115.025C650.993 115.334 650.391 115.732 649.814 116.22L649.989 125.511L647.786 125.553L647.539 112.465L649.742 112.424L649.779 114.357C650.64 113.637 651.4 113.127 652.059 112.825C652.725 112.516 653.406 112.355 654.101 112.341C654.484 112.334 654.761 112.341 654.933 112.361C655.105 112.373 655.364 112.404 655.709 112.452L655.751 114.713ZM668.642 125.16L666.439 125.201L666.413 123.83C665.791 124.389 665.139 124.827 664.457 125.145C663.775 125.462 663.032 125.629 662.228 125.644C660.666 125.673 659.412 125.095 658.468 123.91C657.531 122.724 657.043 121.065 657.003 118.932C656.982 117.823 657.119 116.832 657.416 115.959C657.72 115.086 658.135 114.34 658.663 113.721C659.183 113.117 659.791 112.652 660.488 112.327C661.193 112.001 661.925 111.831 662.682 111.816C663.37 111.803 663.98 111.866 664.514 112.005C665.048 112.135 665.611 112.347 666.202 112.641L666.095 106.97L668.298 106.929L668.642 125.16ZM666.378 121.979L666.237 114.469C665.638 114.214 665.103 114.041 664.633 113.948C664.162 113.855 663.65 113.814 663.095 113.825C661.861 113.848 660.908 114.296 660.237 115.168C659.566 116.04 659.245 117.265 659.275 118.843C659.304 120.397 659.592 121.576 660.139 122.378C660.685 123.172 661.544 123.559 662.716 123.537C663.34 123.525 663.971 123.376 664.606 123.091C665.241 122.798 665.832 122.427 666.378 121.979ZM694.172 119.697C694.185 120.377 694.038 121.052 693.73 121.722C693.43 122.392 692.999 122.962 692.438 123.434C691.822 123.946 691.099 124.35 690.269 124.647C689.446 124.944 688.449 125.103 687.277 125.125C686.02 125.149 684.885 125.053 683.873 124.838C682.868 124.622 681.843 124.294 680.795 123.852L680.74 120.947L680.904 120.944C681.801 121.661 682.831 122.208 683.994 122.585C685.158 122.961 686.247 123.14 687.263 123.121C688.7 123.094 689.812 122.803 690.599 122.25C691.393 121.695 691.782 120.969 691.765 120.071C691.75 119.298 691.548 118.731 691.158 118.371C690.777 118.011 690.197 117.737 689.42 117.548C688.831 117.403 688.192 117.286 687.503 117.198C686.821 117.109 686.096 116.994 685.328 116.852C683.775 116.553 682.616 116.016 681.852 115.241C681.095 114.458 680.704 113.43 680.68 112.157C680.653 110.697 681.247 109.49 682.464 108.537C683.68 107.576 685.238 107.078 687.136 107.043C688.362 107.019 689.489 107.115 690.517 107.33C691.544 107.545 692.456 107.817 693.251 108.146L693.303 110.888L693.139 110.891C692.464 110.341 691.581 109.893 690.488 109.546C689.403 109.192 688.294 109.025 687.162 109.046C685.92 109.07 684.925 109.346 684.177 109.876C683.437 110.406 683.074 111.077 683.09 111.889C683.103 112.616 683.301 113.182 683.684 113.589C684.067 113.996 684.733 114.3 685.682 114.501C686.184 114.601 686.897 114.72 687.822 114.859C688.747 114.998 689.531 115.143 690.175 115.295C691.478 115.615 692.464 116.116 693.133 116.798C693.802 117.481 694.149 118.448 694.172 119.697ZM708.847 117.862C708.887 119.994 708.372 121.688 707.302 122.943C706.232 124.198 704.779 124.842 702.943 124.877C701.092 124.912 699.608 124.322 698.491 123.109C697.382 121.895 696.808 120.222 696.767 118.09C696.727 115.957 697.238 114.264 698.301 113.009C699.371 111.746 700.832 111.098 702.683 111.063C704.519 111.028 705.995 111.622 707.112 112.843C708.229 114.057 708.807 115.73 708.847 117.862ZM706.574 117.905C706.542 116.21 706.187 114.959 705.507 114.151C704.828 113.335 703.898 112.939 702.719 112.961C701.524 112.983 700.602 113.415 699.954 114.255C699.313 115.088 699.008 116.352 699.04 118.047C699.071 119.687 699.427 120.927 700.107 121.766C700.787 122.597 701.72 123.001 702.907 122.979C704.079 122.957 704.989 122.521 705.637 121.673C706.293 120.817 706.605 119.561 706.574 117.905ZM720.357 113.496L720.24 113.498C719.91 113.426 719.589 113.378 719.276 113.352C718.971 113.319 718.607 113.306 718.185 113.314C717.506 113.327 716.852 113.492 716.225 113.808C715.598 114.117 714.996 114.515 714.419 115.003L714.594 124.294L712.392 124.335L712.145 111.248L714.348 111.206L714.384 113.14C715.246 112.42 716.006 111.91 716.664 111.608C717.331 111.299 718.011 111.137 718.706 111.124C719.089 111.117 719.367 111.124 719.539 111.144C719.711 111.156 719.97 111.187 720.314 111.235L720.357 113.496ZM729.426 123.897C729.014 124.015 728.562 124.113 728.071 124.192C727.589 124.272 727.156 124.315 726.773 124.322C725.437 124.348 724.415 124.007 723.706 123.302C722.998 122.596 722.628 121.451 722.598 119.865L722.467 112.905L720.979 112.933L720.944 111.082L722.432 111.054L722.362 107.293L724.564 107.252L724.635 111.013L729.181 110.927L729.216 112.778L724.67 112.864L724.782 118.828C724.795 119.515 724.821 120.054 724.86 120.444C724.898 120.826 725.014 121.183 725.208 121.515C725.386 121.825 725.624 122.051 725.924 122.194C726.231 122.328 726.694 122.39 727.311 122.378C727.67 122.372 728.044 122.314 728.433 122.205C728.821 122.088 729.101 121.993 729.271 121.919L729.388 121.917L729.426 123.897Z" fill="white"/>
<path d="M386.203 46.6188C385.852 47.8348 385.41 48.8579 384.878 49.6881C384.355 50.513 383.703 51.138 382.922 51.563C382.179 51.9666 381.383 52.1882 380.534 52.2277C379.686 52.2673 378.747 52.1387 377.719 51.8418C376.668 51.5385 375.792 51.1353 375.092 50.6323C374.391 50.1292 373.852 49.5306 373.475 48.8363C373.045 48.0453 372.821 47.1755 372.802 46.2268C372.79 45.2802 372.968 44.1727 373.334 42.9042L376.229 32.8723L378.459 33.5158L375.531 43.6602C375.268 44.5685 375.122 45.3026 375.09 45.8627C375.066 46.425 375.139 46.9623 375.308 47.4746C375.497 48.0579 375.838 48.5546 376.329 48.9648C376.828 49.3771 377.475 49.6981 378.271 49.9278C379.074 50.1596 379.792 50.2367 380.424 50.159C381.059 50.0738 381.616 49.8322 382.097 49.4343C382.513 49.091 382.86 48.6626 383.139 48.1494C383.427 47.6308 383.689 46.9624 383.925 46.1442L386.869 35.9435L389.099 36.5869L386.203 46.6188ZM398.389 53.5027C398.058 54.6511 397.309 55.4555 396.143 55.916C394.985 56.3786 393.584 56.3726 391.941 55.8982C391.01 55.6295 390.186 55.2737 389.468 54.8307C388.76 54.3823 388.181 53.951 387.731 53.5366L388.417 51.1609L388.529 51.1934C389.052 51.8892 389.68 52.5052 390.411 53.0416C391.145 53.5705 391.887 53.9433 392.637 54.16C393.568 54.4286 394.34 54.4887 394.952 54.3401C395.564 54.1915 395.963 53.7944 396.149 53.1489C396.292 52.6535 396.258 52.237 396.046 51.8995C395.835 51.562 395.35 51.1861 394.591 50.772C394.31 50.6178 393.939 50.4252 393.477 50.1943C393.023 49.9656 392.612 49.7413 392.244 49.5213C391.225 48.9101 390.565 48.2559 390.262 47.5586C389.968 46.856 389.941 46.0918 390.179 45.2661C390.329 44.7482 390.575 44.2907 390.917 43.8935C391.267 43.4984 391.712 43.1836 392.251 42.949C392.773 42.7175 393.386 42.5936 394.09 42.5773C394.804 42.5556 395.562 42.6607 396.365 42.8925C397.116 43.1092 397.847 43.4218 398.558 43.8304C399.28 44.2338 399.857 44.6404 400.292 45.0505L399.639 47.3135L399.526 47.281C399.101 46.7272 398.54 46.2036 397.845 45.7103C397.152 45.2094 396.434 44.8517 395.691 44.6372C394.918 44.414 394.222 44.3757 393.602 44.5221C392.985 44.661 392.591 45.0232 392.422 45.6086C392.273 46.1266 392.322 46.5635 392.568 46.9193C392.808 47.273 393.257 47.6343 393.914 48.0031C394.279 48.2058 394.688 48.4216 395.143 48.6503C395.604 48.8812 395.986 49.0808 396.287 49.249C397.205 49.758 397.852 50.3634 398.227 51.0651C398.599 51.7744 398.653 52.5869 398.389 53.5027ZM412.661 54.9756L403.395 52.3009C403.172 53.074 403.093 53.7832 403.159 54.4283C403.227 55.0659 403.411 55.6271 403.71 56.1119C403.996 56.5849 404.38 56.9883 404.861 57.3223C405.349 57.6585 405.916 57.9197 406.562 58.106C407.418 58.353 408.326 58.4322 409.286 58.3436C410.257 58.2496 410.974 58.0906 411.437 57.8665L411.549 57.899L410.883 60.2071C410.083 60.3015 409.283 60.3428 408.481 60.331C407.679 60.3192 406.87 60.1952 406.051 59.959C403.965 59.3567 402.498 58.3236 401.652 56.8597C400.809 55.3883 400.687 53.613 401.287 51.5338C401.881 49.4771 402.911 48.006 404.378 47.1203C405.853 46.2368 407.506 46.0594 409.338 46.5881C411.034 47.0777 412.197 47.9501 412.827 49.2052C413.464 50.4625 413.519 52.0032 412.993 53.8271L412.661 54.9756ZM411.069 52.7595C411.382 51.6465 411.349 50.7058 410.969 49.9374C410.596 49.1713 409.847 48.6257 408.721 48.3007C407.588 47.9736 406.587 48.0465 405.719 48.5196C404.858 48.9948 404.239 49.7148 403.863 50.6796L411.069 52.7595ZM424.93 53.9673L424.818 53.9348C424.524 53.7688 424.231 53.6274 423.94 53.5107C423.658 53.3887 423.314 53.2692 422.909 53.1522C422.256 52.9637 421.583 52.928 420.891 53.0453C420.2 53.155 419.508 53.3576 418.813 53.6529L416.235 62.5814L414.119 61.9704L417.749 49.394L419.865 50.005L419.329 51.8628C420.365 51.4299 421.242 51.1666 421.96 51.0731C422.688 50.9742 423.386 51.0211 424.054 51.214C424.422 51.3201 424.685 51.4083 424.843 51.4785C425.004 51.5412 425.242 51.6464 425.557 51.7943L424.93 53.9673ZM438.146 68.9057L431.525 66.9948L432.019 65.2834L434.215 65.9171L438.066 52.5751L435.87 51.9413L436.364 50.23L442.985 52.1409L442.491 53.8523L440.295 53.2185L436.444 66.5606L438.64 67.1943L438.146 68.9057ZM452.287 72.9876L450.17 72.3766L452.237 65.2158C452.404 64.6378 452.526 64.0876 452.604 63.5652C452.684 63.0353 452.675 62.6017 452.577 62.2645C452.48 61.8951 452.277 61.5844 451.968 61.3325C451.66 61.073 451.225 60.862 450.662 60.6995C450.084 60.5327 449.439 60.5009 448.726 60.6041C448.013 60.7074 447.304 60.897 446.598 61.173L443.888 70.5631L441.771 69.9522L445.401 57.3757L447.518 57.9867L447.115 59.3828C447.934 59.0256 448.74 58.7949 449.534 58.6908C450.329 58.5867 451.098 58.6419 451.841 58.8564C453.199 59.2485 454.117 59.9566 454.594 60.9806C455.071 62.0046 455.087 63.286 454.643 64.8247L452.287 72.9876ZM462.926 75.9364C462.497 75.9266 462.037 75.8873 461.545 75.8183C461.06 75.7516 460.634 75.6651 460.266 75.5589C458.982 75.1884 458.106 74.5615 457.637 73.6781C457.169 72.7947 457.154 71.5912 457.594 70.0674L459.524 63.3795L458.095 62.9668L458.608 61.1879L460.038 61.6006L461.081 57.9864L463.198 58.5974L462.155 62.2116L466.523 63.4725L466.01 65.2515L461.641 63.9905L459.987 69.7214C459.796 70.3819 459.662 70.9042 459.584 71.2881C459.507 71.6646 459.513 72.0402 459.6 72.415C459.678 72.7629 459.84 73.0493 460.084 73.2743C460.337 73.4939 460.761 73.6893 461.354 73.8604C461.699 73.9601 462.073 74.0153 462.477 74.026C462.882 74.0293 463.178 74.021 463.362 74.0011L463.475 74.0336L462.926 75.9364ZM477.739 73.7599L468.473 71.0852C468.25 71.8584 468.171 72.5675 468.237 73.2126C468.305 73.8503 468.489 74.4115 468.788 74.8963C469.074 75.3692 469.458 75.7727 469.939 76.1067C470.427 76.4428 470.994 76.704 471.639 76.8904C472.495 77.1373 473.403 77.2165 474.364 77.1279C475.334 77.034 476.051 76.8749 476.514 76.6508L476.627 76.6833L475.961 78.9914C475.161 79.0859 474.36 79.1272 473.559 79.1153C472.757 79.1035 471.947 78.9795 471.129 78.7433C469.042 78.141 467.576 77.1079 466.73 75.644C465.886 74.1726 465.764 72.3973 466.365 70.3182C466.958 68.2615 467.989 66.7903 469.456 65.9047C470.931 65.0212 472.584 64.8438 474.415 65.3724C476.112 65.8621 477.275 66.7345 477.904 67.9896C478.542 69.2469 478.597 70.7875 478.071 72.6115L477.739 73.7599ZM476.147 71.5439C476.46 70.4308 476.426 69.4901 476.046 68.7218C475.674 67.9556 474.925 67.4101 473.799 67.0851C472.665 66.7579 471.665 66.8309 470.796 67.3039C469.935 67.7791 469.317 68.4991 468.941 69.4639L476.147 71.5439ZM490.008 72.7517L489.895 72.7192C489.602 72.5531 489.309 72.4117 489.017 72.295C488.735 72.173 488.392 72.0535 487.987 71.9365C487.334 71.748 486.661 71.7124 485.968 71.8296C485.278 71.9394 484.585 72.1419 483.89 72.4373L481.313 81.3658L479.196 80.7548L482.826 68.1784L484.943 68.7893L484.407 70.6471C485.443 70.2142 486.319 69.951 487.038 69.8574C487.765 69.7585 488.463 69.8055 489.131 69.9983C489.499 70.1045 489.762 70.1926 489.921 70.2628C490.082 70.3255 490.32 70.4308 490.635 70.5786L490.008 72.7517ZM503.543 74.1582L494.824 85.2656L492.696 84.6514L491.271 70.6158L493.568 71.2788L494.574 82.4126L501.325 73.5179L503.543 74.1582ZM509.195 73.5087L506.808 72.8197L507.442 70.6242L509.829 71.3131L509.195 73.5087ZM504.822 88.1515L502.705 87.5405L506.335 74.9641L508.452 75.5751L504.822 88.1515ZM521.289 86.3305L512.023 83.6558C511.8 84.4289 511.721 85.1381 511.787 85.7832C511.855 86.4208 512.039 86.982 512.338 87.4668C512.624 87.9398 513.008 88.3432 513.489 88.6772C513.977 89.0134 514.544 89.2746 515.19 89.4609C516.045 89.7079 516.954 89.7871 517.914 89.6985C518.885 89.6045 519.601 89.4455 520.065 89.2214L520.177 89.2539L519.511 91.562C518.711 91.6564 517.91 91.6977 517.109 91.6859C516.307 91.6741 515.497 91.5501 514.679 91.3139C512.593 90.7116 511.126 89.6785 510.28 88.2146C509.436 86.7432 509.315 84.9679 509.915 82.8887C510.508 80.8321 511.539 79.3609 513.006 78.4752C514.481 77.5917 516.134 77.4143 517.965 77.943C519.662 78.4326 520.825 79.305 521.455 80.5601C522.092 81.8174 522.147 83.3581 521.621 85.182L521.289 86.3305ZM519.697 84.1144C520.01 83.0014 519.977 82.0607 519.597 81.2924C519.224 80.5262 518.475 79.9806 517.349 79.6556C516.216 79.3285 515.215 79.4014 514.346 79.8745C513.486 80.3497 512.867 81.0697 512.491 82.0345L519.697 84.1144ZM542.196 85.315L535.289 96.9457L533.33 96.3802L532.897 85.7534L526.89 94.5213L524.942 93.9591L525.262 80.4272L527.469 81.0642L526.966 91.4695L532.918 82.6371L534.663 83.1408L535.072 93.8094L540.068 84.7008L542.196 85.315ZM551.648 97.7401C551.316 98.8886 550.568 99.693 549.402 100.153C548.244 100.616 546.843 100.61 545.199 100.136C544.269 99.867 543.444 99.5111 542.727 99.0681C542.018 98.6198 541.44 98.1884 540.99 97.774L541.676 95.3984L541.788 95.4309C542.311 96.1266 542.938 96.7427 543.67 97.2791C544.404 97.808 545.146 98.1807 545.896 98.3974C546.827 98.6661 547.598 98.7261 548.211 98.5775C548.823 98.4289 549.222 98.0319 549.408 97.3864C549.551 96.891 549.517 96.4745 549.305 96.137C549.094 95.7994 548.609 95.4236 547.85 95.0095C547.569 94.8552 547.198 94.6627 546.736 94.4318C546.282 94.203 545.871 93.9787 545.503 93.7588C544.484 93.1476 543.823 92.4933 543.521 91.796C543.227 91.0934 543.2 90.3293 543.438 89.5036C543.588 88.9857 543.834 88.5281 544.176 88.1309C544.526 87.7359 544.97 87.421 545.51 87.1864C546.032 86.955 546.645 86.8311 547.349 86.8147C548.063 86.793 548.821 86.8981 549.624 87.1299C550.375 87.3466 551.106 87.6593 551.817 88.0679C552.538 88.4712 553.116 88.8779 553.551 89.2879L552.898 91.551L552.785 91.5185C552.359 90.9647 551.799 90.4411 551.104 89.9477C550.411 89.4468 549.693 89.0891 548.95 88.8746C548.177 88.6515 547.48 88.6131 546.861 88.7595C546.243 88.8984 545.85 89.2606 545.681 89.8461C545.532 90.364 545.58 90.8009 545.827 91.1568C546.067 91.5105 546.515 91.8718 547.173 92.2405C547.538 92.4433 547.947 92.659 548.401 92.8877C548.863 93.1187 549.245 93.3182 549.546 93.4864C550.464 93.9954 551.111 94.6008 551.485 95.3026C551.858 96.0119 551.912 96.8244 551.648 97.7401Z" fill="white"/>
<path d="M68.5068 53.8068C68.5616 54.4842 68.4561 55.1668 68.1903 55.8545C67.9323 56.5416 67.5376 57.1379 67.0063 57.6432C66.4236 58.192 65.727 58.6402 64.9164 58.9878C64.1137 59.3349 63.1282 59.5556 61.9602 59.65C60.7064 59.7513 59.5679 59.7258 58.5445 59.5734C57.5288 59.4203 56.4846 59.1559 55.4118 58.7802L55.1777 55.8834L55.3412 55.8702C56.2803 56.531 57.3421 57.0135 58.5267 57.3175C59.7113 57.6215 60.8098 57.7326 61.8221 57.6507C63.2549 57.5349 64.3468 57.1763 65.0976 56.5748C65.8563 55.9726 66.1994 55.2238 66.127 54.3283C66.0647 53.5574 65.828 53.0043 65.4168 52.6692C65.0135 52.3334 64.4182 52.0954 63.6309 51.9553C63.0343 51.8467 62.3892 51.7695 61.6958 51.7237C61.0101 51.6772 60.2794 51.6069 59.5037 51.5129C57.9354 51.3104 56.7457 50.8462 55.9346 50.1201C55.1306 49.3856 54.6773 48.3837 54.5747 47.1144C54.457 45.6582 54.9759 44.4171 56.1314 43.391C57.2862 42.3571 58.8098 41.7636 60.7021 41.6107C61.9246 41.5119 63.0554 41.5381 64.0944 41.6892C65.1334 41.8404 66.06 42.0555 66.8742 42.3346L67.0951 45.0679L66.9316 45.0811C66.2243 44.5739 65.3147 44.1811 64.2028 43.9026C63.0979 43.6156 61.9809 43.5178 60.8518 43.609C59.6137 43.7091 58.6377 44.0467 57.9239 44.6217C57.2178 45.196 56.8976 45.8881 56.963 46.698C57.0216 47.4222 57.2544 47.9755 57.6615 48.3581C58.0687 48.7406 58.7522 49.0028 59.712 49.1446C60.2192 49.2134 60.9385 49.2885 61.87 49.37C62.8015 49.4514 63.5931 49.5481 64.2448 49.6601C65.5652 49.8982 66.5804 50.3374 67.2906 50.9776C68.0007 51.6178 68.4061 52.5608 68.5068 53.8068ZM79.2126 57.8206C78.8087 57.963 78.3643 58.0891 77.8794 58.1988C77.4022 58.3079 76.9729 58.3779 76.5913 58.4087C75.2597 58.5163 74.2184 58.2399 73.4675 57.5795C72.7165 56.9191 72.2772 55.7986 72.1494 54.2178L71.5886 47.2795L70.1052 47.3994L69.956 45.5538L71.4395 45.4339L71.1364 41.6844L73.3324 41.5069L73.6355 45.2564L78.1675 44.8901L78.3167 46.7357L73.7846 47.102L74.2651 53.0474C74.3205 53.7327 74.3795 54.2688 74.4421 54.6556C74.5041 55.0346 74.6421 55.384 74.8561 55.7038C75.0525 56.0014 75.3047 56.2123 75.6126 56.3363C75.9276 56.4519 76.3927 56.4849 77.0079 56.4351C77.3661 56.4062 77.7358 56.3254 78.117 56.1927C78.4975 56.0522 78.7706 55.94 78.9363 55.856L79.0531 55.8466L79.2126 57.8206ZM92.0241 56.9028L89.8398 57.0793L89.7274 55.6893C89.5435 55.8374 89.2938 56.0457 88.9785 56.3142C88.6703 56.5742 88.3661 56.7869 88.066 56.9522C87.7145 57.1609 87.3059 57.3429 86.8403 57.4981C86.3754 57.6611 85.8236 57.7684 85.1851 57.82C84.0092 57.915 82.981 57.6062 82.1004 56.8936C81.2199 56.1809 80.7308 55.2211 80.6332 54.0141C80.5533 53.0252 80.6991 52.21 81.0705 51.5686C81.449 50.9188 82.0174 50.3869 82.7756 49.9729C83.5416 49.5583 84.4763 49.2437 85.5798 49.0291C86.6832 48.8145 87.871 48.6245 89.1431 48.459L89.1157 48.1202C89.0754 47.6219 88.9525 47.2164 88.747 46.9038C88.5492 46.5906 88.2793 46.3537 87.9371 46.1933C87.6111 46.0394 87.2276 45.9489 86.7865 45.9218C86.3454 45.8948 85.8873 45.9004 85.4123 45.9388C84.8361 45.9854 84.1999 46.1152 83.5039 46.3282C82.8072 46.5334 82.0928 46.8106 81.3608 47.1598L81.244 47.1692L81.0636 44.9382C81.4825 44.7868 82.0912 44.6083 82.8897 44.4027C83.6883 44.197 84.4808 44.0625 85.2673 43.9989C86.1861 43.9246 86.9906 43.938 87.6807 44.039C88.3779 44.1315 88.9905 44.3407 89.5184 44.6664C90.038 44.985 90.4492 45.4181 90.7521 45.9658C91.0551 46.5135 91.2405 47.2078 91.3085 48.0488L92.0241 56.9028ZM89.5802 53.8671L89.2866 50.2344C88.62 50.3275 87.8343 50.4498 86.9296 50.6013C86.0325 50.7522 85.3253 50.923 84.8077 51.1137C84.1914 51.3438 83.704 51.6654 83.3455 52.0784C82.9863 52.4837 82.8335 53.0172 82.887 53.6791C82.9474 54.4267 83.2189 54.973 83.7014 55.3181C84.1832 55.6554 84.8875 55.7865 85.8142 55.7116C86.5851 55.6493 87.2779 55.4444 87.8925 55.0969C88.5065 54.7416 89.0691 54.3317 89.5802 53.8671ZM108.097 55.6037L105.2 55.8379L99.5053 50.549L98.1897 52.0191L98.5419 56.376L96.3459 56.5535L94.877 38.3783L97.0729 38.2009L98.0151 49.8582L103.83 42.816L106.598 42.5923L101.023 49.1095L108.097 55.6037ZM120.822 48.2382L111.209 49.0152C111.274 49.8173 111.451 50.5084 111.741 51.0885C112.03 51.6608 112.4 52.1207 112.852 52.4683C113.287 52.8093 113.788 53.051 114.356 53.1932C114.932 53.3348 115.555 53.3785 116.225 53.3244C117.112 53.2526 117.99 53.0053 118.857 52.5825C119.731 52.1513 120.345 51.749 120.699 51.3755L120.816 51.3661L121.01 53.7606C120.295 54.1319 119.561 54.4538 118.807 54.7264C118.053 54.9989 117.252 55.1695 116.403 55.2381C114.238 55.4131 112.501 54.9656 111.192 53.8957C109.882 52.818 109.14 51.2007 108.966 49.0437C108.793 46.91 109.236 45.1694 110.295 43.8219C111.362 42.4738 112.845 41.7229 114.745 41.5694C116.505 41.4271 117.902 41.8316 118.935 42.7827C119.976 43.7332 120.573 45.1545 120.726 47.0468L120.822 48.2382ZM118.548 46.729C118.448 45.5771 118.083 44.7091 117.456 44.1249C116.837 43.5401 115.943 43.2949 114.775 43.3893C113.599 43.4843 112.689 43.9067 112.044 44.6564C111.407 45.4055 111.083 46.2977 111.073 47.3332L118.548 46.729ZM135.57 53.3833L133.374 53.5608L132.773 46.1319C132.725 45.5323 132.644 44.9744 132.532 44.4584C132.419 43.9345 132.257 43.5322 132.047 43.2514C131.825 42.9401 131.526 42.7213 131.147 42.5952C130.768 42.4612 130.286 42.4178 129.702 42.465C129.103 42.5135 128.488 42.7121 127.857 43.0609C127.227 43.4097 126.631 43.838 126.068 44.3459L126.856 54.0876L124.66 54.2651L123.191 36.09L125.387 35.9125L125.918 42.4887C126.558 41.8648 127.23 41.3637 127.937 40.9853C128.643 40.6068 129.381 40.3865 130.152 40.3242C131.562 40.2102 132.671 40.5478 133.479 41.3368C134.287 42.1258 134.756 43.3185 134.885 44.9148L135.57 53.3833ZM150.391 45.625C150.563 47.7509 150.154 49.4731 149.163 50.7915C148.172 52.11 146.762 52.8432 144.932 52.9911C143.086 53.1403 141.569 52.6437 140.379 51.5015C139.197 50.3586 138.52 48.7242 138.348 46.5983C138.177 44.4725 138.582 42.7506 139.565 41.4327C140.555 40.1065 141.973 39.3688 143.819 39.2196C145.649 39.0717 147.159 39.5728 148.349 40.7228C149.539 41.8651 150.219 43.4991 150.391 45.625ZM148.125 45.8082C147.989 44.1184 147.556 42.8914 146.828 42.1272C146.1 41.3553 145.147 41.0168 143.972 41.1119C142.78 41.2082 141.887 41.6958 141.292 42.5747C140.704 43.4452 140.478 44.7254 140.614 46.4152C140.747 48.0505 141.178 49.2658 141.908 50.0611C142.638 50.8486 143.595 51.1945 144.779 51.0988C145.947 51.0044 146.828 50.5139 147.423 49.6272C148.024 48.732 148.259 47.459 148.125 45.8082ZM156.548 51.6878L154.352 51.8653L152.883 33.6902L155.079 33.5127L156.548 51.6878ZM171.476 50.4813L169.28 50.6588L169.17 49.2921C168.583 49.8882 167.959 50.3658 167.298 50.7249C166.638 51.0839 165.906 51.2959 165.104 51.3607C163.547 51.4866 162.26 50.9871 161.244 49.8621C160.236 48.7365 159.646 47.1108 159.475 44.9849C159.385 43.8792 159.461 42.8815 159.703 41.992C159.952 41.1018 160.321 40.3313 160.809 39.6805C161.291 39.0458 161.87 38.5445 162.545 38.1763C163.229 37.8076 163.948 37.5927 164.704 37.5316C165.389 37.4763 166.002 37.5011 166.544 37.6063C167.085 37.7037 167.659 37.8806 168.268 38.1371L167.811 32.4837L170.007 32.3062L171.476 50.4813ZM169.02 47.4466L168.415 39.9593C167.802 39.7424 167.258 39.6022 166.782 39.5387C166.307 39.4752 165.793 39.4658 165.24 39.5105C164.009 39.6099 163.086 40.1156 162.47 41.0276C161.854 41.9396 161.61 43.1821 161.737 44.7551C161.862 46.3047 162.222 47.463 162.817 48.2301C163.412 48.9894 164.293 49.3218 165.461 49.2274C166.084 49.1771 166.704 48.9898 167.32 48.6656C167.936 48.3337 168.503 47.9273 169.02 47.4466ZM186.21 42.9534L176.597 43.7304C176.662 44.5324 176.839 45.2235 177.129 45.8036C177.418 46.3759 177.789 46.8359 178.24 47.1835C178.675 47.5245 179.177 47.7661 179.745 47.9084C180.321 48.0499 180.943 48.0937 181.613 48.0395C182.501 47.9678 183.378 47.7205 184.245 47.2977C185.12 46.8665 185.734 46.4642 186.088 46.0907L186.204 46.0812L186.398 48.4758C185.683 48.847 184.949 49.169 184.195 49.4415C183.441 49.7141 182.64 49.8847 181.791 49.9533C179.626 50.1282 177.889 49.6808 176.58 48.6109C175.27 47.5332 174.528 45.9159 174.354 43.7588C174.181 41.6252 174.625 39.8846 175.684 38.5371C176.75 37.189 178.234 36.4381 180.134 36.2845C181.894 36.1423 183.29 36.5467 184.323 37.4979C185.364 38.4483 185.961 39.8697 186.114 41.762L186.21 42.9534ZM183.937 41.4442C183.836 40.2923 183.472 39.4243 182.845 38.8401C182.225 38.2553 181.331 38.0101 180.163 38.1045C178.987 38.1995 178.077 38.6219 177.432 39.3716C176.795 40.1206 176.472 41.0129 176.461 42.0484L183.937 41.4442ZM197.329 37.6695L197.212 37.6789C196.878 37.6275 196.555 37.5988 196.241 37.5928C195.934 37.5784 195.57 37.5882 195.15 37.6222C194.472 37.6769 193.83 37.8817 193.224 38.2363C192.617 38.5832 192.041 39.0178 191.496 39.54L192.244 48.8028L190.048 48.9802L188.994 35.9329L191.19 35.7555L191.345 37.6828C192.161 36.9114 192.888 36.355 193.527 36.0133C194.172 35.6633 194.842 35.4603 195.535 35.4043C195.916 35.3734 196.194 35.3628 196.367 35.3723C196.54 35.374 196.799 35.3883 197.146 35.4151L197.329 37.6695ZM224.331 46.2094L222.018 46.3964L220.807 31.4101L216.795 41.9981L215.417 42.1095L209.792 32.3003L211.003 47.2866L208.842 47.4612L207.437 30.0687L210.59 29.8138L216.01 39.1223L219.713 29.0765L222.925 28.8169L224.331 46.2094ZM239.241 38.6674L229.627 39.4444C229.692 40.2464 229.87 40.9375 230.159 41.5176C230.449 42.0899 230.819 42.5499 231.27 42.8974C231.705 43.2385 232.207 43.4801 232.775 43.6223C233.351 43.7639 233.973 43.8076 234.643 43.7535C235.531 43.6818 236.408 43.4345 237.276 43.0117C238.15 42.5805 238.764 42.1781 239.118 41.8047L239.235 41.7952L239.428 44.1898C238.714 44.561 237.979 44.883 237.225 45.1555C236.471 45.4281 235.67 45.5987 234.821 45.6673C232.657 45.8422 230.92 45.3948 229.61 44.3249C228.301 43.2472 227.558 41.6299 227.384 39.4728C227.212 37.3392 227.655 35.5986 228.714 34.2511C229.781 32.9029 231.264 32.1521 233.164 31.9985C234.924 31.8563 236.32 32.2607 237.354 33.2118C238.394 34.1623 238.991 35.5837 239.144 37.476L239.241 38.6674ZM236.967 37.1581C236.866 36.0063 236.502 35.1383 235.875 34.5541C235.255 33.9693 234.362 33.7241 233.194 33.8185C232.018 33.9135 231.107 34.3359 230.463 35.0856C229.825 35.8346 229.502 36.7269 229.491 37.7623L236.967 37.1581ZM253.491 37.5157L243.878 38.2926C243.943 39.0947 244.12 39.7858 244.41 40.3659C244.699 40.9382 245.069 41.3981 245.521 41.7457C245.956 42.0868 246.457 42.3284 247.025 42.4706C247.601 42.6122 248.224 42.6559 248.894 42.6018C249.781 42.53 250.659 42.2827 251.526 41.8599C252.4 41.4287 253.014 41.0264 253.368 40.6529L253.485 40.6435L253.679 43.038C252.964 43.4093 252.23 43.7312 251.476 44.0038C250.722 44.2763 249.921 44.4469 249.072 44.5155C246.907 44.6905 245.17 44.243 243.861 43.1731C242.551 42.0955 241.809 40.4781 241.634 38.3211C241.462 36.1874 241.905 34.4468 242.964 33.0993C244.031 31.7512 245.514 31.0003 247.414 30.8468C249.174 30.7045 250.571 31.109 251.604 32.0601C252.645 33.0106 253.242 34.432 253.395 36.3242L253.491 37.5157ZM251.217 36.0064C251.117 34.8545 250.752 33.9865 250.125 33.4023C249.506 32.8175 248.612 32.5723 247.444 32.6667C246.268 32.7618 245.358 33.1841 244.713 33.9338C244.076 34.6829 243.752 35.5751 243.742 36.6106L251.217 36.0064ZM264.094 42.8781C263.69 43.0205 263.246 43.1465 262.761 43.2563C262.284 43.3654 261.854 43.4354 261.473 43.4662C260.141 43.5738 259.1 43.2974 258.349 42.637C257.598 41.9766 257.159 40.856 257.031 39.2753L256.47 32.3369L254.987 32.4568L254.838 30.6113L256.321 30.4914L256.018 26.7419L258.214 26.5644L258.517 30.3139L263.049 29.9476L263.198 31.7932L258.666 32.1595L259.147 38.1049C259.202 38.7902 259.261 39.3262 259.324 39.7131C259.386 40.0921 259.524 40.4415 259.738 40.7613C259.934 41.0589 260.186 41.2697 260.494 41.3938C260.809 41.5094 261.274 41.5423 261.889 41.4926C262.248 41.4637 262.617 41.3828 262.998 41.2501C263.379 41.1097 263.652 40.9975 263.818 40.9135L263.935 40.9041L264.094 42.8781ZM267.895 27.3574L265.419 27.5575L265.235 25.2798L267.711 25.0797L267.895 27.3574ZM268.986 42.6003L266.79 42.7778L265.736 29.7305L267.932 29.553L268.986 42.6003ZM284.241 41.3674L282.045 41.5448L281.445 34.1159C281.396 33.5163 281.316 32.9585 281.204 32.4424C281.091 31.9186 280.929 31.5162 280.718 31.2354C280.497 30.9241 280.197 30.7054 279.819 30.5792C279.439 30.4453 278.958 30.4019 278.374 30.4491C277.774 30.4975 277.159 30.6962 276.529 31.0449C275.899 31.3937 275.302 31.8221 274.74 32.33L275.527 42.0716L273.331 42.2491L272.277 29.2018L274.473 29.0243L274.59 30.4727C275.229 29.8489 275.902 29.3478 276.608 28.9693C277.314 28.5909 278.053 28.3705 278.824 28.3082C280.233 28.1943 281.342 28.5318 282.151 29.3208C282.959 30.1098 283.428 31.3025 283.557 32.8989L284.241 41.3674ZM298.932 38.6869C299.111 40.8984 298.74 42.5626 297.819 43.6795C296.898 44.7964 295.394 45.4391 293.307 45.6078C292.614 45.6638 291.933 45.6679 291.263 45.6202C290.601 45.5796 289.944 45.4956 289.291 45.3681L289.109 43.1254L289.226 43.116C289.596 43.2272 290.178 43.3526 290.973 43.4921C291.769 43.6394 292.556 43.6816 293.335 43.6187C294.082 43.5582 294.694 43.4187 295.17 43.1999C295.646 42.9811 296.008 42.7011 296.255 42.3598C296.503 42.0341 296.668 41.6524 296.75 41.2146C296.832 40.7769 296.852 40.2933 296.809 39.7638L296.713 38.5723C296.094 39.1553 295.491 39.6038 294.905 39.9176C294.326 40.2231 293.57 40.4135 292.635 40.4891C291.078 40.6149 289.794 40.1543 288.785 39.1073C287.782 38.0518 287.198 36.5 287.033 34.452C286.942 33.3307 287.02 32.3525 287.266 31.5174C287.519 30.674 287.894 29.9343 288.392 29.2985C288.853 28.7047 289.434 28.2267 290.133 27.8644C290.832 27.4944 291.54 27.2804 292.256 27.2225C293.012 27.1615 293.649 27.1884 294.168 27.3032C294.694 27.4096 295.253 27.5956 295.847 27.8612L295.942 27.2892L297.998 27.123L298.932 38.6869ZM296.566 36.7618L295.991 29.6483C295.386 29.4307 294.826 29.2879 294.311 29.2198C293.803 29.1433 293.3 29.1251 292.802 29.1654C291.595 29.263 290.677 29.7447 290.05 30.6106C289.422 31.4764 289.171 32.6803 289.295 34.2221C289.413 35.6861 289.76 36.775 290.335 37.4888C290.91 38.2026 291.793 38.5114 292.985 38.4151C293.623 38.3635 294.252 38.1912 294.871 37.8982C295.497 37.5967 296.062 37.218 296.566 36.7618Z" fill="white"/>
</svg>
